<?xml version="1.0" encoding="UTF-8"?>
<svg version="1.0" xmlns="http://www.w3.org/2000/svg"
 width="1280.000000pt" height="978.000000pt" viewBox="0 0 1280.000000 978.000000" preserveAspectRatio="xMidYMid meet">
<g transform="translate(0.000000,978.000000) scale(0.100000,-0.100000)"
fill="#002362" stroke="none">
<path d="M575 9565 c-6 -64 -495 -6927 -495 -6949 0 -7 48 -47 107 -89 210
-147 426 -401 406 -477 -4 -16 -3 -21 5 -16 12 7 146 -56 157 -74 5 -8 13 -6
25 5 13 12 23 13 44 6 31 -12 30 -13 11 32 -25 59 -20 71 49 126 53 41 76 52
130 62 59 11 73 10 148 -10 191 -52 183 -48 306 -148 64 -53 122 -100 128
-105 6 -4 33 -12 60 -17 45 -9 51 -7 80 18 26 24 43 29 109 34 88 6 96 4 169
-57 33 -28 56 -40 73 -38 34 5 42 -2 273 -212 113 -102 211 -186 218 -186 8 0
26 -7 40 -15 15 -8 60 -21 100 -30 101 -22 178 -75 277 -193 l79 -93 81 7 c82
6 82 6 138 -29 40 -26 67 -54 101 -106 25 -39 51 -71 59 -71 7 0 46 24 87 53
54 39 79 66 94 98 21 43 22 44 154 92 l133 49 150 164 c150 164 151 164 194
164 34 0 48 5 63 25 12 15 51 36 104 55 67 24 97 42 149 90 82 74 200 126 263
115 22 -3 61 -1 86 6 41 10 50 9 88 -10 l42 -21 0 23 c0 27 103 132 119 122
16 -10 21 11 10 48 -13 47 -39 49 -112 8 -71 -40 -163 -50 -197 -23 -18 15
-28 17 -41 9 -24 -15 -108 21 -120 51 -21 55 -12 84 47 139 59 56 92 67 101
33 8 -29 65 -28 78 2 7 16 63 44 215 107 l205 86 22 47 c21 42 27 47 74 58 29
7 64 19 78 26 38 20 61 17 106 -14 39 -27 41 -31 64 -139 20 -94 28 -113 45
-117 42 -11 67 -71 78 -187 6 -59 7 -118 4 -131 -4 -13 -39 -48 -79 -79 -67
-52 -74 -61 -103 -135 -30 -76 -34 -80 -93 -115 -36 -21 -88 -41 -124 -48
-104 -20 -102 -19 -78 -44 11 -12 32 -48 46 -80 l27 -58 76 3 75 3 12 35 c15
46 135 123 177 114 17 -3 36 1 50 10 20 14 23 25 23 78 0 57 2 62 24 68 17 4
32 24 55 70 30 62 33 65 71 68 22 2 87 -1 145 -8 138 -16 172 -34 202 -109 12
-31 22 -77 22 -103 0 -27 3 -48 7 -48 5 0 13 -9 19 -21 16 -28 -12 -107 -50
-144 -25 -24 -34 -27 -69 -21 -21 3 -46 9 -55 12 -14 5 -16 -4 -16 -64 0 -53
-4 -71 -15 -76 -24 -9 -17 -24 15 -31 35 -8 43 -17 121 -151 l58 -101 87 30
86 30 74 -17 74 -18 16 -54 c18 -65 16 -86 -12 -98 -21 -9 -21 -10 7 -55 19
-30 36 -81 49 -145 11 -55 22 -101 24 -104 11 -11 46 21 46 42 0 26 69 96 95
96 8 0 29 -9 47 -20 38 -23 50 -25 47 -8 -6 52 28 71 81 43 32 -16 32 -16 25
7 -4 13 -10 28 -12 34 -3 9 38 66 77 108 16 16 100 26 120 14 14 -9 25 -9 45
0 45 21 72 15 96 -20 12 -18 24 -35 25 -36 1 -2 28 5 58 17 43 16 62 18 82 11
16 -7 32 -7 44 0 10 5 41 10 69 10 40 0 52 4 61 20 13 25 55 26 69 3 8 -14 14
-16 28 -7 10 6 30 8 45 3 22 -6 28 -3 33 11 9 29 86 54 144 46 31 -4 60 -2 78
6 32 14 993 758 993 769 0 4 -28 7 -62 6 -61 -2 -63 -1 -66 24 -2 14 5 47 15
74 16 44 23 50 68 66 67 23 86 23 92 -1 3 -11 7 -20 9 -20 2 0 36 25 75 55 39
30 74 55 78 55 14 0 31 53 20 66 -6 7 -11 35 -12 61 -2 44 0 48 22 51 13 2 27
-1 30 -7 5 -8 16 -7 38 1 45 17 131 -11 170 -55 18 -21 35 -31 48 -28 10 2 44
-2 74 -9 34 -8 81 -10 128 -5 l74 7 -6 27 c-8 36 14 55 54 46 17 -3 32 -2 36
4 3 6 14 11 24 11 19 0 61 -39 61 -58 0 -7 11 -10 28 -7 88 15 176 25 211 25
23 0 152 -19 289 -41 l247 -41 61 20 c68 21 46 22 507 -24 151 -15 170 -19
190 -40 26 -28 40 -29 97 -9 38 13 52 14 129 0 l85 -15 26 24 c15 14 72 38
140 59 114 36 115 37 188 110 62 63 73 79 70 103 -2 22 -8 29 -23 27 -36 -3
-58 16 -52 46 3 16 1 33 -5 39 -5 5 -7 19 -3 31 7 24 41 27 110 11 22 -5 43
-6 48 -1 4 4 -484 331 -1085 726 -601 395 -1098 724 -1105 732 -24 30 36 161
85 183 34 17 112 121 112 152 0 10 -21 28 -52 45 l-53 28 3 87 4 87 -52 87
-51 88 21 54 c15 40 17 58 9 68 -7 9 -3 53 15 160 l25 147 -30 35 c-30 34 -32
47 -13 95 4 12 -4 18 -30 23 -40 7 -51 21 -61 76 -6 33 -12 38 -78 67 -64 27
-87 31 -203 37 -125 7 -134 6 -168 -16 -20 -12 -43 -19 -51 -16 -8 3 -28 27
-44 53 -27 43 -34 48 -68 49 -21 0 -45 3 -54 7 -11 6 -24 -5 -49 -40 -42 -61
-109 -122 -134 -123 -11 0 -29 8 -40 19 -15 12 -51 22 -116 31 -52 7 -101 17
-108 23 -9 7 -16 7 -20 0 -4 -5 -22 -33 -41 -61 -38 -59 -50 -62 -117 -30 -43
21 -46 22 -55 5 -14 -24 -47 -21 -94 8 -26 16 -55 25 -82 25 -35 0 -46 5 -65
30 -17 23 -30 30 -55 30 -27 0 -37 6 -51 29 -13 24 -22 29 -42 25 -21 -5 -36
5 -88 60 -39 40 -68 63 -77 60 -8 -3 -28 1 -44 9 -26 13 -32 13 -42 1 -16 -19
-36 -18 -74 6 l-32 19 -47 -64 c-50 -68 -71 -78 -100 -46 -15 16 -21 17 -47 7
-28 -10 -33 -9 -53 17 -22 27 -24 28 -71 17 -55 -12 -95 -6 -95 14 0 16 -30
26 -78 26 -20 0 -47 10 -66 25 -28 21 -38 24 -60 15 -51 -19 -72 -12 -115 37
l-40 47 -68 -16 c-74 -18 -91 -14 -112 25 -8 16 -25 27 -45 31 -18 4 -47 21
-64 39 -17 17 -58 59 -91 92 -34 33 -66 76 -72 95 -6 19 -15 39 -19 43 -3 4
-38 3 -76 -2 -38 -5 -131 -12 -206 -16 -130 -5 -138 -4 -156 15 -16 18 -30 21
-81 19 -51 -2 -65 1 -84 19 -13 12 -32 22 -43 22 -28 -1 -155 -36 -164 -46 -4
-5 -18 -43 -32 -84 -18 -54 -22 -83 -17 -105 37 -138 38 -156 18 -176 -25 -25
-90 -25 -146 1 l-42 19 -29 -34 c-44 -49 -62 -56 -133 -48 -47 5 -69 12 -87
30 -12 12 -27 23 -32 23 -5 0 -14 9 -20 19 -6 13 -23 21 -47 23 -32 3 -39 8
-48 33 -5 17 -20 38 -32 48 -13 10 -23 24 -23 32 0 7 -16 22 -35 34 -48 28
-99 112 -163 266 -30 72 -56 138 -59 148 -6 18 -80 57 -108 57 -8 0 -31 31
-52 69 -26 46 -56 83 -94 114 -44 36 -59 55 -69 91 -17 60 -75 112 -220 196
-79 46 -122 77 -144 107 -20 26 -45 46 -70 54 -28 9 -43 22 -50 41 -6 16 -18
28 -27 28 -10 0 -24 7 -33 15 -13 13 -18 13 -44 -2 -40 -23 -52 -12 -104 91
-33 65 -42 95 -46 151 -3 39 -10 73 -16 77 -6 4 -32 8 -58 8 -43 0 -49 3 -63
30 -11 22 -23 30 -43 30 -41 0 -51 12 -58 66 -4 29 -17 65 -34 89 -24 35 -28
53 -34 148 -8 127 4 203 45 296 45 99 38 121 -33 121 -24 0 -41 10 -71 43 -21
23 -43 52 -47 64 -5 12 -24 26 -47 33 -21 7 -44 18 -52 23 -24 20 -75 33 -101
26 -16 -4 -36 1 -57 13 -26 15 -36 17 -53 8 -18 -10 -26 -6 -55 25 -33 36 -33
37 -59 20 -25 -17 -28 -17 -62 6 -34 23 -35 26 -31 71 3 35 -1 57 -17 84 -27
48 -43 53 -58 17 -17 -37 -28 -44 -61 -38 -33 6 -47 -17 -29 -46 16 -26 15
-54 -3 -69 -8 -7 -14 -24 -13 -39 2 -35 -17 -68 -44 -77 -13 -3 -36 -22 -51
-40 -16 -19 -37 -34 -48 -34 -11 0 -65 23 -120 51 l-101 50 6 39 c3 21 8 44
11 52 3 7 -5 17 -17 23 -15 7 -23 19 -23 37 -1 14 -6 32 -12 40 -6 7 -16 40
-23 72 -26 128 -38 155 -75 170 -38 16 -38 13 -35 141 1 66 5 86 25 117 l24
37 -55 7 c-42 5 -59 12 -70 30 -9 12 -28 24 -42 26 l-27 3 3 90 c1 50 0 99 -2
110 -7 27 -64 55 -91 44 -59 -23 -121 1 -127 48 -2 22 -11 29 -45 39 -24 7
-45 9 -48 4 -7 -11 -113 -11 -120 0 -3 5 -19 7 -35 3 -22 -4 -54 5 -116 32
-62 26 -89 34 -97 26 -14 -14 -50 -14 -64 0 -19 19 -63 -1 -78 -37 -8 -19 -21
-34 -29 -34 -10 0 -16 -9 -16 -25 0 -31 -26 -45 -83 -45 -27 0 -49 -6 -57 -15
-29 -35 -70 -6 -70 49 0 23 -4 26 -32 26 -25 0 -43 11 -84 51 -44 44 -52 48
-64 35 -7 -9 -26 -16 -41 -16 -25 0 -30 5 -36 30 -6 35 -36 60 -70 60 -12 0
-27 9 -33 20 -11 21 -11 21 -29 -2 -16 -19 -22 -21 -42 -11 -13 7 -34 14 -46
18 -12 3 -23 13 -25 21 -2 12 -20 16 -80 17 l-77 2 -6 -60z"/>
</g>
</svg>
